<svg width="93" height="92" fill="none" xmlns="http://www.w3.org/2000/svg"><rect x=".667" width="92" height="92" rx="24" fill="transparent"/><g clip-path="url(#clip0_22728_11387)"><path d="M75.193 51.727a5.595 5.595 0 00-2.15-.429 5.61 5.61 0 00-4.187 1.864l-1.22-.506-3.48-1.441c.494-1.653.76-3.404.76-5.215 0-1.812-.266-3.562-.76-5.215l3.48-1.441 1.22-.506a5.61 5.61 0 004.186 1.863 5.631 5.631 0 005.195-7.779 5.61 5.61 0 00-5.198-3.473 5.634 5.634 0 00-5.615 5.923l-1.227.508-3.479 1.441a18.381 18.381 0 00-7.373-7.373l1.441-3.479.508-1.225a5.61 5.61 0 005.494-3.465A5.632 5.632 0 0057.593 14a5.61 5.61 0 00-5.199 3.473 5.634 5.634 0 001.436 6.334l-.507 1.223-1.441 3.48a18.197 18.197 0 00-5.215-.76c-1.812 0-3.562.267-5.215.76l-1.441-3.48-.507-1.223a5.634 5.634 0 001.435-6.334A5.61 5.61 0 0035.741 14a5.631 5.631 0 00-5.195 7.779 5.61 5.61 0 005.494 3.465l.508 1.226 1.44 3.479a18.38 18.38 0 00-7.372 7.373l-3.48-1.441-1.227-.508a5.634 5.634 0 00-3.463-5.494 5.595 5.595 0 00-2.151-.43 5.61 5.61 0 00-5.199 3.474 5.632 5.632 0 005.196 7.779 5.61 5.61 0 004.185-1.864l1.22.506 3.48 1.441a18.19 18.19 0 00-.76 5.215c0 1.812.267 3.562.76 5.215l-3.48 1.441-1.22.506a5.61 5.61 0 00-4.186-1.864 5.632 5.632 0 00-5.195 7.779 5.61 5.61 0 005.199 3.473c.74 0 1.463-.144 2.15-.429a5.634 5.634 0 003.464-5.494l1.227-.508 3.48-1.44a18.382 18.382 0 007.373 7.372l-1.441 3.48-.508 1.225a5.61 5.61 0 00-5.494 3.465A5.632 5.632 0 0035.74 78a5.61 5.61 0 005.198-3.474 5.634 5.634 0 00-1.435-6.333l.506-1.223 1.442-3.48c1.653.493 3.403.76 5.215.76 1.811 0 3.561-.267 5.215-.76l1.441 3.48.507 1.223a5.634 5.634 0 00-1.436 6.334A5.61 5.61 0 0057.592 78a5.631 5.631 0 005.195-7.779 5.61 5.61 0 00-5.494-3.465l-.507-1.226-1.441-3.479a18.38 18.38 0 007.373-7.373l3.479 1.441 1.227.508a5.634 5.634 0 003.464 5.494c.687.285 1.41.43 2.15.43a5.61 5.61 0 005.2-3.474 5.631 5.631 0 00-3.045-7.35zM46.667 60.5c-7.995 0-14.5-6.505-14.5-14.5s6.505-14.5 14.5-14.5 14.5 6.505 14.5 14.5-6.505 14.5-14.5 14.5z" fill="#000"/><path d="M75.193 51.727a5.595 5.595 0 00-2.15-.429 5.61 5.61 0 00-4.187 1.864l-1.22-.506-3.48-1.441c.494-1.653.76-3.404.76-5.215 0-1.812-.266-3.562-.76-5.215l3.48-1.441 1.22-.506a5.61 5.61 0 004.186 1.863 5.631 5.631 0 005.195-7.779 5.61 5.61 0 00-5.198-3.473 5.634 5.634 0 00-5.615 5.923l-1.227.508-3.479 1.441a18.381 18.381 0 00-7.373-7.373l1.441-3.479.508-1.225a5.61 5.61 0 005.494-3.465A5.632 5.632 0 0057.593 14a5.61 5.61 0 00-5.199 3.473 5.634 5.634 0 001.436 6.334l-.507 1.223-1.441 3.48a18.197 18.197 0 00-5.215-.76c-1.812 0-3.562.267-5.215.76l-1.441-3.48-.507-1.223a5.634 5.634 0 001.435-6.334A5.61 5.61 0 0035.741 14a5.631 5.631 0 00-5.195 7.779 5.61 5.61 0 005.494 3.465l.508 1.226 1.44 3.479a18.38 18.38 0 00-7.372 7.373l-3.48-1.441-1.227-.508a5.634 5.634 0 00-3.463-5.494 5.595 5.595 0 00-2.151-.43 5.61 5.61 0 00-5.199 3.474 5.632 5.632 0 005.196 7.779 5.61 5.61 0 004.185-1.864l1.22.506 3.48 1.441a18.19 18.19 0 00-.76 5.215c0 1.812.267 3.562.76 5.215l-3.48 1.441-1.22.506a5.61 5.61 0 00-4.186-1.864 5.632 5.632 0 00-5.195 7.779 5.61 5.61 0 005.199 3.473c.74 0 1.463-.144 2.15-.429a5.634 5.634 0 003.464-5.494l1.227-.508 3.48-1.44a18.382 18.382 0 007.373 7.372l-1.441 3.48-.508 1.225a5.61 5.61 0 00-5.494 3.465A5.632 5.632 0 0035.74 78a5.61 5.61 0 005.198-3.474 5.634 5.634 0 00-1.435-6.333l.506-1.223 1.442-3.48c1.653.493 3.403.76 5.215.76 1.811 0 3.561-.267 5.215-.76l1.441 3.48.507 1.223a5.634 5.634 0 00-1.436 6.334A5.61 5.61 0 0057.592 78a5.631 5.631 0 005.195-7.779 5.61 5.61 0 00-5.494-3.465l-.507-1.226-1.441-3.479a18.38 18.38 0 007.373-7.373l3.479 1.441 1.227.508a5.634 5.634 0 003.464 5.494c.687.285 1.41.43 2.15.43a5.61 5.61 0 005.2-3.474 5.631 5.631 0 00-3.045-7.35zM46.667 60.5c-7.995 0-14.5-6.505-14.5-14.5s6.505-14.5 14.5-14.5 14.5 6.505 14.5 14.5-6.505 14.5-14.5 14.5z" fill="url(#paint0_linear_22728_11387)"/><path d="M46.667 35.25c-5.928 0-10.75 4.822-10.75 10.75s4.822 10.75 10.75 10.75c5.927 0 10.75-4.822 10.75-10.75s-4.823-10.75-10.75-10.75zm1.875 14.875h-3.75v-8.25h3.75v8.25z" fill="#000"/><path d="M46.667 35.25c-5.928 0-10.75 4.822-10.75 10.75s4.822 10.75 10.75 10.75c5.927 0 10.75-4.822 10.75-10.75s-4.823-10.75-10.75-10.75zm1.875 14.875h-3.75v-8.25h3.75v8.25z" fill="url(#paint1_linear_22728_11387)"/></g><defs><linearGradient id="paint0_linear_22728_11387" x1="46.667" y1="14" x2="46.667" y2="78" gradientUnits="userSpaceOnUse"><stop stop-color="#EF8080"/><stop offset="1" stop-color="#F0145A"/></linearGradient><linearGradient id="paint1_linear_22728_11387" x1="46.667" y1="35.25" x2="46.667" y2="56.75" gradientUnits="userSpaceOnUse"><stop stop-color="#EF8080"/><stop offset="1" stop-color="#F0145A"/></linearGradient><clipPath id="clip0_22728_11387"><path fill="#fff" transform="translate(14.667 14)" d="M0 0h64v64H0z"/></clipPath></defs></svg>